<svg id="Layer_1" data-name="Layer 1" xmlns="http://www.w3.org/2000/svg" xmlns:xlink="http://www.w3.org/1999/xlink" viewBox="0 0 1500 1000"><defs><style>.cls-1{fill:none;}.cls-2{clip-path:url(#clip-path);}.cls-3{fill:#fff;}.cls-4{fill:#01411c;}</style><clipPath id="clip-path"><rect class="cls-1" x="-1" width="1500" height="1000"/></clipPath></defs><title>Flag-of-Pakistan</title><g class="cls-2"><polygon class="cls-3" points="1499 2.38 1499 997.62 562.19 997.62 562.19 998.22 -1 998.22 -1 1.78 562.19 1.78 562.19 2.38 1499 2.38"/><rect class="cls-4" x="393" y="2.38" width="1106" height="995.24"/><polygon class="cls-3" points="968.3 409.05 1014.82 388.7 1009.83 338.17 1043.57 376.13 1090.07 355.77 1064.4 399.57 1098.14 437.52 1048.55 426.64 1022.88 470.45 1017.9 419.93 968.3 409.05"/><path class="cls-3" d="M1124.23,581.93A209.66,209.66,0,0,1,933.39,704.69c-115.79,0-209.64-93.85-209.64-209.64,0-93.51,61.21-172.72,145.76-199.74q-5.22,4-10.21,8.47c-79.32,70.52-86.47,192-16,271.3s192,86.48,271.31,16C1118,588.1,1121.16,585.05,1124.23,581.93Z"/><polygon class="cls-4" points="1043.57 376.13 1090.07 355.77 1064.4 399.57 1098.14 437.52 1048.55 426.64 1022.88 470.45 1017.9 419.93 968.3 409.05 1014.82 388.7 1009.83 338.17 1043.57 376.13"/><polygon class="cls-3" points="1098.14 437.52 1048.55 426.64 1022.88 470.45 1017.9 419.93 968.3 409.05 1014.82 388.7 1009.83 338.17 1043.57 376.13 1090.07 355.77 1064.4 399.57 1098.14 437.52"/></g></svg>